<svg xmlns="http://www.w3.org/2000/svg" width="438.533" height="438.533" viewBox="0 0 438.533 438.533">
  <path fill="#1f1fd2" d="M409.133 109.203c-19.608-33.592-46.205-60.19-79.798-79.796C295.735 9.8 259.058 0 219.273 0c-39.78 0-76.47 9.8-110.063 29.407-33.595 19.604-60.192 46.2-79.8 79.796C9.8 142.8 0 179.49 0 219.267c0 39.78 9.804 76.463 29.407 110.062 19.607 33.59 46.204 60.188 79.8 79.797 33.596 19.605 70.282 29.407 110.062 29.407s76.47-9.802 110.064-29.407c33.593-19.602 60.19-46.206 79.795-79.798 19.602-33.597 29.402-70.285 29.402-110.063 0-39.782-9.8-76.472-29.4-110.064zm-47.688 76.66L206.42 340.89c-3.617 3.62-7.992 5.427-13.134 5.427-4.948 0-9.23-1.808-12.847-5.428L77.082 237.54c-3.422-3.43-5.137-7.704-5.137-12.848 0-5.328 1.71-9.71 5.137-13.136l25.98-25.693c3.622-3.616 7.9-5.424 12.85-5.424s9.236 1.808 12.85 5.423l64.526 64.523 116.484-116.2c3.617-3.616 7.898-5.425 12.847-5.425 4.946 0 9.234 1.81 12.848 5.427l25.98 25.697c3.433 3.424 5.14 7.8 5.14 13.13 0 5.14-1.707 9.423-5.143 12.85z"/>
</svg>
