<svg xmlns="http://www.w3.org/2000/svg" style="width:0; height:0; visibility:hidden;">
    <symbol id="icon_arrows-circle" viewBox="0 0 474.449 474.449">
       <g fill="currentColor"> <path d="M237.24 0C106.233 0 .016 106.217.016 237.224S106.233 474.45 237.24 474.45 474.433 368.23 474.433 237.224 368.248 0 237.24 0zm0 442.666c-113.273 0-205.442-92.17-205.442-205.442S123.968 31.782 237.24 31.782s205.41 92.17 205.41 205.442c.032 113.24-92.105 205.442-205.41 205.442z"/> <path d="M248.205 113.622c-3.178-3.178-7.31-4.704-11.473-4.64-4.227-.064-8.39 1.462-11.57 4.64l-106.31 94.044c-6.23 6.23-6.23 16.368 0 22.597 6.228 6.26 16.367 6.26 22.596 0l95.22-84.255 95.22 84.255c6.23 6.26 16.4 6.26 22.597 0 6.23-6.23 6.23-16.368 0-22.597l-106.28-94.044z"/> <path d="M248.205 227.594c-3.178-3.178-7.31-4.704-11.473-4.64-4.227-.064-8.39 1.462-11.57 4.64l-106.31 94.013c-6.23 6.26-6.23 16.4 0 22.597 6.228 6.26 16.367 6.26 22.596 0l95.22-84.192 95.22 84.192c6.23 6.26 16.4 6.26 22.597 0 6.23-6.198 6.23-16.336 0-22.597l-106.28-94.013z"/> </g> 
    </symbol></svg>