<svg xmlns="http://www.w3.org/2000/svg" style="width:0; height:0; visibility:hidden;">
    <symbol id="icon_arrows-circle" viewBox="0 0 474.449 474.449">
       <g fill="currentColor"> <path d="M237.24 0C106.233 0 .016 106.217.016 237.224S106.233 474.45 237.24 474.45 474.433 368.23 474.433 237.224 368.248 0 237.24 0zm0 442.666c-113.273 0-205.442-92.17-205.442-205.442S123.968 31.782 237.24 31.782s205.41 92.17 205.41 205.442c.032 113.24-92.105 205.442-205.41 205.442z"/> <path d="M248.205 113.622c-3.178-3.178-7.31-4.704-11.473-4.64-4.227-.064-8.39 1.462-11.57 4.64l-106.31 94.044c-6.23 6.23-6.23 16.368 0 22.597 6.228 6.26 16.367 6.26 22.596 0l95.22-84.255 95.22 84.255c6.23 6.26 16.4 6.26 22.597 0 6.23-6.23 6.23-16.368 0-22.597l-106.28-94.044z"/> <path d="M248.205 227.594c-3.178-3.178-7.31-4.704-11.473-4.64-4.227-.064-8.39 1.462-11.57 4.64l-106.31 94.013c-6.23 6.26-6.23 16.4 0 22.597 6.228 6.26 16.367 6.26 22.596 0l95.22-84.192 95.22 84.192c6.23 6.26 16.4 6.26 22.597 0 6.23-6.198 6.23-16.336 0-22.597l-106.28-94.013z"/> </g> 
    </symbol>
    <symbol id="icon_truck" viewBox="0 0 493.349 493.349">
       <path fill="currentColor" d="M487.932 51.1c-3.613-3.612-7.905-5.424-12.847-5.424h-292.36c-4.948 0-9.233 1.812-12.847 5.424-3.615 3.617-5.424 7.902-5.424 12.85v54.818H118.77c-5.14 0-10.71 1.237-16.704 3.71-5.996 2.48-10.8 5.52-14.416 9.136l-56.532 56.53c-2.473 2.475-4.612 5.328-6.424 8.566-1.807 3.23-3.14 6.14-3.997 8.705-.855 2.572-1.477 6.09-1.854 10.566-.378 4.476-.62 7.76-.715 9.854-.09 2.092-.09 5.71 0 10.85.096 5.142.144 8.47.144 9.995v91.36c-4.947 0-9.23 1.806-12.847 5.427C1.81 347.077 0 351.363 0 356.312c0 2.85.378 5.376 1.14 7.562.763 2.19 2.046 3.95 3.858 5.284 1.807 1.335 3.378 2.426 4.71 3.285 1.334.855 3.57 1.424 6.71 1.71s5.28.48 6.423.576c1.144.088 3.57.088 7.28 0 3.715-.097 5.855-.145 6.427-.145h18.27c0 20.17 7.14 37.397 21.412 51.674 14.276 14.273 31.5 21.412 51.677 21.412 20.175 0 37.4-7.14 51.675-21.413 14.277-14.277 21.41-31.505 21.41-51.675H310.63c0 20.17 7.14 37.397 21.412 51.674 14.27 14.273 31.498 21.412 51.675 21.412 20.18 0 37.397-7.14 51.675-21.413 14.277-14.277 21.412-31.505 21.412-51.675.568 0 2.71.048 6.42.144 3.713.088 6.14.088 7.282 0 1.144-.097 3.29-.29 6.427-.576 3.14-.287 5.373-.855 6.708-1.71s2.902-1.95 4.71-3.286c1.81-1.335 3.097-3.094 3.856-5.284.77-2.187 1.143-4.712 1.143-7.562V63.952c.003-4.948-1.804-9.228-5.418-12.852zM153.597 400.28c-7.23 7.23-15.797 10.854-25.694 10.854-9.898 0-18.464-3.62-25.697-10.854-7.233-7.228-10.848-15.797-10.848-25.693 0-9.897 3.62-18.47 10.848-25.7 7.232-7.23 15.798-10.85 25.697-10.85 9.897 0 18.464 3.618 25.694 10.85 7.236 7.23 10.853 15.803 10.853 25.7 0 9.896-3.617 18.465-10.853 25.693zm10.853-171.877H54.814v-8.562c0-2.474.855-4.568 2.568-6.282l55.674-55.672c1.712-1.714 3.81-2.568 6.283-2.568h45.11v73.085zM409.41 400.28c-7.23 7.23-15.797 10.854-25.693 10.854-9.9 0-18.47-3.62-25.7-10.854-7.23-7.228-10.85-15.797-10.85-25.693 0-9.897 3.618-18.47 10.85-25.7 7.23-7.23 15.8-10.85 25.7-10.85 9.896 0 18.463 3.618 25.693 10.85 7.23 7.234 10.852 15.803 10.852 25.7 0 9.896-3.614 18.465-10.852 25.693z"/> 
    </symbol></svg>